# xmcd
#
# Track frame offsets: 
#        150
#        18077
#        33660
#        48681
#        66495
#        81734
#        100179
#        114062
#        131990
#        147408
#        163776
#
# Disc length: 2405 seconds
#
# Revision: 0
# Processed by: cddbd v1.5.2PL0 Copyright (c) Steve Scherf et al.
# Submitted via: ExactAudioCopyFreeDBPlugin 1.0
#
DISCID=a109630b
DTITLE=Da Cruz - Disco E Progresso (Bright Side)
DYEAR=2014
DGENRE=World
TTITLE0=Bola da Discoteca
TTITLE1=Nascer Livre
TTITLE2=Din Din
TTITLE3=Cansado do São Paulo
TTITLE4=Tudo Flui
TTITLE5=Rolar a Bola
TTITLE6=Boa
TTITLE7=Amanha se Foi
TTITLE8=Passageiros da meia Noite
TTITLE9=Doralina
TTITLE10=Campari Soda
EXTD=
EXTT0=
EXTT1=
EXTT2=
EXTT3=
EXTT4=
EXTT5=
EXTT6=
EXTT7=
EXTT8=
EXTT9=
EXTT10=
PLAYORDER=
